{
  "accessors": [
    {
      "bufferView": 2,
      "componentType": 5126,
      "count": 65532,
      "max": [
        1574.8074951171875,
        -350.6094665527344,
        74.8206787109375
      ],
      "min": [
        991.75927734375,
        -837.3931884765625,
        49.82405471801758
      ],
      "type": "VEC3"
    },
    {
      "bufferView": 2,
      "byteOffset": 786384,
      "componentType": 5126,
      "count": 65532,
      "max": [
        0.9999611377716064,
        0.9999915957450867,
        0.9999969005584717
      ],
      "min": [
        -0.9998791813850403,
        -0.999968945980072,
        -0.9999169111251831
      ],
      "type": "VEC3"
    },
    {
      "bufferView": 2,
      "byteOffset": 1572768,
      "componentType": 5126,
      "count": 65532,
      "max": [
        0.9882349967956543,
        0.9568629860877991,
        0.7882350087165833
      ],
      "min": [
        0.04705899953842163,
        0.10588199645280838,
        0.09411799907684326
      ],
      "type": "VEC3"
    },
    {
      "bufferView": 1,
      "componentType": 5126,
      "count": 65532,
      "max": [
        0.9955180287361145,
        0.9996799826622009
      ],
      "min": [
        0.005338000133633614,
        0.0039059999398887157
      ],
      "type": "VEC2"
    },
    {
      "bufferView": 0,
      "componentType": 5125,
      "count": 268008,
      "type": "SCALAR"
    },
    {
      "bufferView": 2,
      "byteOffset": 2359152,
      "componentType": 5126,
      "count": 65532,
      "max": [
        1575.990234375,
        -386.32965087890625,
        66.98858642578125
      ],
      "min": [
        952.8859252929688,
        -838.78955078125,
        50.518829345703125
      ],
      "type": "VEC3"
    },
    {
      "bufferView": 2,
      "byteOffset": 3145536,
      "componentType": 5126,
      "count": 65532,
      "max": [
        0.9999324083328247,
        0.9999675750732422,
        0.9999967813491821
      ],
      "min": [
        -0.9998840689659119,
        -0.999925434589386,
        -0.9996233582496643
      ],
      "type": "VEC3"
    },
    {
      "bufferView": 2,
      "byteOffset": 3931920,
      "componentType": 5126,
      "count": 65532,
      "max": [
        0.9843140244483948,
        0.9568629860877991,
        0.7686280012130737
      ],
      "min": [
        0.035294000059366226,
        0.09019599854946136,
        0.09019599854946136
      ],
      "type": "VEC3"
    },
    {
      "bufferView": 1,
      "byteOffset": 524256,
      "componentType": 5126,
      "count": 65532,
      "max": [
        0.9956830143928528,
        0.9996749758720398
      ],
      "min": [
        0.004408000037074089,
        0.006128999870270491
      ],
      "type": "VEC2"
    },
    {
      "bufferView": 0,
      "byteOffset": 1072032,
      "componentType": 5125,
      "count": 257010,
      "type": "SCALAR"
    },
    {
      "bufferView": 2,
      "byteOffset": 4718304,
      "componentType": 5126,
      "count": 65532,
      "max": [
        1574.93310546875,
        -352.66302490234375,
        64.81584167480469
      ],
      "min": [
        938.903564453125,
        -837.5549926757813,
        48.62832260131836
      ],
      "type": "VEC3"
    },
    {
      "bufferView": 2,
      "byteOffset": 5504688,
      "componentType": 5126,
      "count": 65532,
      "max": [
        0.999998927116394,
        0.9999200701713562,
        0.9999986886978149
      ],
      "min": [
        -0.9999860525131226,
        -0.9998893737792969,
        -0.9990540146827698
      ],
      "type": "VEC3"
    },
    {
      "bufferView": 2,
      "byteOffset": 6291072,
      "componentType": 5126,
      "count": 65532,
      "max": [
        0.9686279892921448,
        0.9450979828834534,
        0.7529410123825073
      ],
      "min": [
        0.035294000059366226,
        0.08235300332307816,
        0.08627499639987946
      ],
      "type": "VEC3"
    },
    {
      "bufferView": 1,
      "byteOffset": 1048512,
      "componentType": 5126,
      "count": 65532,
      "max": [
        0.994350016117096,
        0.9998319745063782
      ],
      "min": [
        0.005758000072091818,
        0.012988000176846981
      ],
      "type": "VEC2"
    },
    {
      "bufferView": 0,
      "byteOffset": 2100072,
      "componentType": 5125,
      "count": 255768,
      "type": "SCALAR"
    },
    {
      "bufferView": 2,
      "byteOffset": 7077456,
      "componentType": 5126,
      "count": 65532,
      "max": [
        1578.1922607421875,
        -364.9093933105469,
        62.88417434692383
      ],
      "min": [
        938.464111328125,
        -833.905517578125,
        49.20262145996094
      ],
      "type": "VEC3"
    },
    {
      "bufferView": 2,
      "byteOffset": 7863840,
      "componentType": 5126,
      "count": 65532,
      "max": [
        0.9999653100967407,
        0.9999706745147705,
        0.9999998807907104
      ],
      "min": [
        -0.9999860525131226,
        -0.9999810457229614,
        -0.9998182654380798
      ],
      "type": "VEC3"
    },
    {
      "bufferView": 2,
      "byteOffset": 8650224,
      "componentType": 5126,
      "count": 65532,
      "max": [
        0.9843140244483948,
        0.9568629860877991,
        0.8431370258331299
      ],
      "min": [
        0.035294000059366226,
        0.09019599854946136,
        0.07843100279569626
      ],
      "type": "VEC3"
    },
    {
      "bufferView": 1,
      "byteOffset": 1572768,
      "componentType": 5126,
      "count": 65532,
      "max": [
        0.9946169853210449,
        0.9996370077133179
      ],
      "min": [
        0.004772000014781952,
        0.0069160000421106815
      ],
      "type": "VEC2"
    },
    {
      "bufferView": 0,
      "byteOffset": 3123144,
      "componentType": 5125,
      "count": 261036,
      "type": "SCALAR"
    },
    {
      "bufferView": 2,
      "byteOffset": 9436608,
      "componentType": 5126,
      "count": 65532,
      "max": [
        1576.570068359375,
        -372.5733337402344,
        61.94881820678711
      ],
      "min": [
        938.7927856445313,
        -828.7323608398438,
        47.0325813293457
      ],
      "type": "VEC3"
    },
    {
      "bufferView": 2,
      "byteOffset": 10222992,
      "componentType": 5126,
      "count": 65532,
      "max": [
        0.9999630451202393,
        0.999957799911499,
        0.9999998211860657
      ],
      "min": [
        -0.9999702572822571,
        -0.9999353885650635,
        -0.9999799132347107
      ],
      "type": "VEC3"
    },
    {
      "bufferView": 2,
      "byteOffset": 11009376,
      "componentType": 5126,
      "count": 65532,
      "max": [
        0.992156982421875,
        0.9490200281143188,
        0.8941180109977722
      ],
      "min": [
        0.035294000059366226,
        0.08235300332307816,
        0.08627499639987946
      ],
      "type": "VEC3"
    },
    {
      "bufferView": 1,
      "byteOffset": 2097024,
      "componentType": 5126,
      "count": 65532,
      "max": [
        0.9965010285377502,
        0.9994680285453796
      ],
      "min": [
        0.00532800005748868,
        0.023398999124765396
      ],
      "type": "VEC2"
    },
    {
      "bufferView": 0,
      "byteOffset": 4167288,
      "componentType": 5125,
      "count": 241137,
      "type": "SCALAR"
    },
    {
      "bufferView": 2,
      "byteOffset": 11795760,
      "componentType": 5126,
      "count": 65532,
      "max": [
        1574.5728759765625,
        -338.1571350097656,
        59.91763687133789
      ],
      "min": [
        938.6764526367188,
        -834.9886474609375,
        48.987548828125
      ],
      "type": "VEC3"
    },
    {
      "bufferView": 2,
      "byteOffset": 12582144,
      "componentType": 5126,
      "count": 65532,
      "max": [
        0.9999741315841675,
        0.9998443722724915,
        0.9999998211860657
      ],
      "min": [
        -0.9998761415481567,
        -0.9999318718910217,
        -0.9996233582496643
      ],
      "type": "VEC3"
    },
    {
      "bufferView": 2,
      "byteOffset": 13368528,
      "componentType": 5126,
      "count": 65532,
      "max": [
        0.9764710068702698,
        0.9607840180397034,
        0.8941180109977722
      ],
      "min": [
        0.035294000059366226,
        0.09019599854946136,
        0.09019599854946136
      ],
      "type": "VEC3"
    },
    {
      "bufferView": 1,
      "byteOffset": 2621280,
      "componentType": 5126,
      "count": 65532,
      "max": [
        0.9953789710998535,
        0.9991989731788635
      ],
      "min": [
        0.008595000021159649,
        0.004058000165969133
      ],
      "type": "VEC2"
    },
    {
      "bufferView": 0,
      "byteOffset": 5131836,
      "componentType": 5125,
      "count": 255243,
      "type": "SCALAR"
    },
    {
      "bufferView": 2,
      "byteOffset": 14154912,
      "componentType": 5126,
      "count": 65532,
      "max": [
        1573.151611328125,
        -353.7479553222656,
        58.31672286987305
      ],
      "min": [
        939.8037109375,
        -778.1788330078125,
        49.481346130371094
      ],
      "type": "VEC3"
    },
    {
      "bufferView": 2,
      "byteOffset": 14941296,
      "componentType": 5126,
      "count": 65532,
      "max": [
        0.9993584156036377,
        0.9999285340309143,
        0.9999998807907104
      ],
      "min": [
        -0.9996484518051147,
        -0.9999828338623047,
        -0.994987428188324
      ],
      "type": "VEC3"
    },
    {
      "bufferView": 2,
      "byteOffset": 15727680,
      "componentType": 5126,
      "count": 65532,
      "max": [
        0.9803919792175293,
        0.9647060036659241,
        0.784313976764679
      ],
      "min": [
        0.02745099924504757,
        0.10196100175380707,
        0.08235300332307816
      ],
      "type": "VEC3"
    },
    {
      "bufferView": 1,
      "byteOffset": 3145536,
      "componentType": 5126,
      "count": 65532,
      "max": [
        0.9951199889183044,
        0.9991440176963806
      ],
      "min": [
        0.003930000122636557,
        0.0035729999653995037
      ],
      "type": "VEC2"
    },
    {
      "bufferView": 0,
      "byteOffset": 6152808,
      "componentType": 5125,
      "count": 295482,
      "type": "SCALAR"
    },
    {
      "bufferView": 2,
      "byteOffset": 16514064,
      "componentType": 5126,
      "count": 65532,
      "max": [
        1509.2747802734375,
        -347.47576904296875,
        57.75068283081055
      ],
      "min": [
        942.2022094726563,
        -764.153076171875,
        47.382286071777344
      ],
      "type": "VEC3"
    },
    {
      "bufferView": 2,
      "byteOffset": 17300448,
      "componentType": 5126,
      "count": 65532,
      "max": [
        0.9999169111251831,
        0.9999000430107117,
        0.9999999403953552
      ],
      "min": [
        -0.9999542832374573,
        -0.9999935626983643,
        -0.9994274973869324
      ],
      "type": "VEC3"
    },
    {
      "bufferView": 2,
      "byteOffset": 18086832,
      "componentType": 5126,
      "count": 65532,
      "max": [
        0.992156982421875,
        0.9764710068702698,
        0.8980389833450317
      ],
      "min": [
        0.02745099924504757,
        0.10196100175380707,
        0.08235300332307816
      ],
      "type": "VEC3"
    },
    {
      "bufferView": 1,
      "byteOffset": 3669792,
      "componentType": 5126,
      "count": 65532,
      "max": [
        0.9942029714584351,
        0.9991989731788635
      ],
      "min": [
        0.01145199965685606,
        0.019336000084877014
      ],
      "type": "VEC2"
    },
    {
      "bufferView": 0,
      "byteOffset": 7334736,
      "componentType": 5125,
      "count": 252105,
      "type": "SCALAR"
    },
    {
      "bufferView": 2,
      "byteOffset": 18873216,
      "componentType": 5126,
      "count": 65532,
      "max": [
        1578.6732177734375,
        -352.5748596191406,
        78.0392837524414
      ],
      "min": [
        940.4818115234375,
        -828.29833984375,
        42.915985107421875
      ],
      "type": "VEC3"
    },
    {
      "bufferView": 2,
      "byteOffset": 19659600,
      "componentType": 5126,
      "count": 65532,
      "max": [
        0.9999561905860901,
        0.9998985528945923,
        0.9999998211860657
      ],
      "min": [
        -0.9999440312385559,
        -0.9999254941940308,
        -0.9998217225074768
      ],
      "type": "VEC3"
    },
    {
      "bufferView": 2,
      "byteOffset": 20445984,
      "componentType": 5126,
      "count": 65532,
      "max": [
        0.9686279892921448,
        0.9529410004615784,
        0.7764710187911987
      ],
      "min": [
        0.04705899953842163,
        0.10980399698019028,
        0.09411799907684326
      ],
      "type": "VEC3"
    },
    {
      "bufferView": 1,
      "byteOffset": 4194048,
      "componentType": 5126,
      "count": 65532,
      "max": [
        1.0027159452438354,
        1.0016109943389893
      ],
      "min": [
        -0.0006510000093840063,
        0.012318000197410583
      ],
      "type": "VEC2"
    },
    {
      "bufferView": 0,
      "byteOffset": 8343156,
      "componentType": 5125,
      "count": 199554,
      "type": "SCALAR"
    },
    {
      "bufferView": 2,
      "byteOffset": 21232368,
      "componentType": 5126,
      "count": 65532,
      "max": [
        1577.3717041015625,
        -340.3021545410156,
        58.01961135864258
      ],
      "min": [
        942.3037109375,
        -837.7223510742188,
        52.47478485107422
      ],
      "type": "VEC3"
    },
    {
      "bufferView": 2,
      "byteOffset": 22018752,
      "componentType": 5126,
      "count": 65532,
      "max": [
        0.999957263469696,
        0.9999631643295288,
        0.9999990463256836
      ],
      "min": [
        -0.9999391436576843,
        -0.9997621774673462,
        -0.9998592734336853
      ],
      "type": "VEC3"
    },
    {
      "bufferView": 2,
      "byteOffset": 22805136,
      "componentType": 5126,
      "count": 65532,
      "max": [
        0.992156982421875,
        0.9725490212440491,
        0.8823530077934265
      ],
      "min": [
        0.03921600058674812,
        0.09019599854946136,
        0.09019599854946136
      ],
      "type": "VEC3"
    },
    {
      "bufferView": 1,
      "byteOffset": 4718304,
      "componentType": 5126,
      "count": 65532,
      "max": [
        0.9960529804229736,
        0.9996479749679565
      ],
      "min": [
        0.004085000138729811,
        0.007815999910235405
      ],
      "type": "VEC2"
    },
    {
      "bufferView": 0,
      "byteOffset": 9141372,
      "componentType": 5125,
      "count": 221580,
      "type": "SCALAR"
    },
    {
      "bufferView": 2,
      "byteOffset": 23591520,
      "componentType": 5126,
      "count": 676,
      "max": [
        1555.4267578125,
        -342.7663269042969,
        58.269805908203125
      ],
      "min": [
        941.2615966796875,
        -825.61083984375,
        56.03193664550781
      ],
      "type": "VEC3"
    },
    {
      "bufferView": 2,
      "byteOffset": 23599632,
      "componentType": 5126,
      "count": 676,
      "max": [
        0.9993263483047485,
        0.9917929768562317,
        0.9996544122695923
      ],
      "min": [
        -0.9974308013916016,
        -0.9991415739059448,
        -0.9997862577438354
      ],
      "type": "VEC3"
    },
    {
      "bufferView": 2,
      "byteOffset": 23607744,
      "componentType": 5126,
      "count": 676,
      "max": [
        0.9176470041275024,
        0.8941180109977722,
        0.8039219975471497
      ],
      "min": [
        0.06274499744176865,
        0.1411760002374649,
        0.10980399698019028
      ],
      "type": "VEC3"
    },
    {
      "bufferView": 1,
      "byteOffset": 5242560,
      "componentType": 5126,
      "count": 676,
      "max": [
        0.9941869974136353,
        0.9940530061721802
      ],
      "min": [
        0.011215999722480774,
        0.020150000229477882
      ],
      "type": "VEC2"
    },
    {
      "bufferView": 0,
      "byteOffset": 10027692,
      "componentType": 5125,
      "count": 753,
      "type": "SCALAR"
    }
  ],
  "asset": {
    "extras": {
      "author": "dronemapping (https://sketchfab.com/dronemapping)",
      "license": "CC-BY-4.0 (http://creativecommons.org/licenses/by/4.0/)",
      "source": "https://sketchfab.com/3d-models/part-of-marcille-robert-lake-france-8c82c491a5244053af0a302c3dd902aa",
      "title": "Part of Marcillé-Robert Lake (France)"
    },
    "generator": "Sketchfab-12.67.0",
    "version": "2.0"
  },
  "bufferViews": [
    {
      "buffer": 0,
      "byteLength": 10030704,
      "name": "floatBufferViews",
      "target": 34963
    },
    {
      "buffer": 0,
      "byteLength": 5247968,
      "byteOffset": 10030704,
      "byteStride": 8,
      "name": "floatBufferViews",
      "target": 34962
    },
    {
      "buffer": 0,
      "byteLength": 23615856,
      "byteOffset": 15278672,
      "byteStride": 12,
      "name": "floatBufferViews",
      "target": 34962
    }
  ],
  "buffers": [
    {
      "byteLength": 38894528,
      "uri": "scene.bin"
    }
  ],
  "extensionsUsed": [
    "KHR_materials_unlit"
  ],
  "images": [
    {
      "uri": "textures/mat-0_baseColor.jpeg"
    }
  ],
  "materials": [
    {
      "doubleSided": true,
      "extensions": {
        "KHR_materials_unlit": {}
      },
      "name": "mat-0",
      "pbrMetallicRoughness": {
        "baseColorTexture": {
          "index": 0
        },
        "metallicFactor": 0.0
      }
    }
  ],
  "meshes": [
    {
      "name": "mat-0",
      "primitives": [
        {
          "attributes": {
            "COLOR_0": 2,
            "NORMAL": 1,
            "POSITION": 0,
            "TEXCOORD_0": 3
          },
          "indices": 4,
          "material": 0,
          "mode": 4
        }
      ]
    },
    {
      "name": "mat-0",
      "primitives": [
        {
          "attributes": {
            "COLOR_0": 7,
            "NORMAL": 6,
            "POSITION": 5,
            "TEXCOORD_0": 8
          },
          "indices": 9,
          "material": 0,
          "mode": 4
        }
      ]
    },
    {
      "name": "mat-0",
      "primitives": [
        {
          "attributes": {
            "COLOR_0": 12,
            "NORMAL": 11,
            "POSITION": 10,
            "TEXCOORD_0": 13
          },
          "indices": 14,
          "material": 0,
          "mode": 4
        }
      ]
    },
    {
      "name": "mat-0",
      "primitives": [
        {
          "attributes": {
            "COLOR_0": 17,
            "NORMAL": 16,
            "POSITION": 15,
            "TEXCOORD_0": 18
          },
          "indices": 19,
          "material": 0,
          "mode": 4
        }
      ]
    },
    {
      "name": "mat-0",
      "primitives": [
        {
          "attributes": {
            "COLOR_0": 22,
            "NORMAL": 21,
            "POSITION": 20,
            "TEXCOORD_0": 23
          },
          "indices": 24,
          "material": 0,
          "mode": 4
        }
      ]
    },
    {
      "name": "mat-0",
      "primitives": [
        {
          "attributes": {
            "COLOR_0": 27,
            "NORMAL": 26,
            "POSITION": 25,
            "TEXCOORD_0": 28
          },
          "indices": 29,
          "material": 0,
          "mode": 4
        }
      ]
    },
    {
      "name": "mat-0",
      "primitives": [
        {
          "attributes": {
            "COLOR_0": 32,
            "NORMAL": 31,
            "POSITION": 30,
            "TEXCOORD_0": 33
          },
          "indices": 34,
          "material": 0,
          "mode": 4
        }
      ]
    },
    {
      "name": "mat-0",
      "primitives": [
        {
          "attributes": {
            "COLOR_0": 37,
            "NORMAL": 36,
            "POSITION": 35,
            "TEXCOORD_0": 38
          },
          "indices": 39,
          "material": 0,
          "mode": 4
        }
      ]
    },
    {
      "name": "mat-0",
      "primitives": [
        {
          "attributes": {
            "COLOR_0": 42,
            "NORMAL": 41,
            "POSITION": 40,
            "TEXCOORD_0": 43
          },
          "indices": 44,
          "material": 0,
          "mode": 4
        }
      ]
    },
    {
      "name": "mat-0",
      "primitives": [
        {
          "attributes": {
            "COLOR_0": 47,
            "NORMAL": 46,
            "POSITION": 45,
            "TEXCOORD_0": 48
          },
          "indices": 49,
          "material": 0,
          "mode": 4
        }
      ]
    },
    {
      "name": "mat-0",
      "primitives": [
        {
          "attributes": {
            "COLOR_0": 52,
            "NORMAL": 51,
            "POSITION": 50,
            "TEXCOORD_0": 53
          },
          "indices": 54,
          "material": 0,
          "mode": 4
        }
      ]
    }
  ],
  "nodes": [
    {
      "children": [
        1
      ],
      "matrix": [
        1.0,
        0.0,
        0.0,
        0.0,
        0.0,
        2.220446049250313e-16,
        -1.0,
        0.0,
        0.0,
        1.0,
        2.220446049250313e-16,
        0.0,
        0.0,
        0.0,
        0.0,
        1.0
      ],
      "name": "Sketchfab_model"
    },
    {
      "children": [
        2
      ],
      "name": "Collada visual scene group"
    },
    {
      "children": [
        3,
        4,
        5,
        6,
        7,
        8,
        9,
        10,
        11,
        12,
        13
      ],
      "name": "mesh1"
    },
    {
      "mesh": 0,
      "name": "mat-0"
    },
    {
      "mesh": 1,
      "name": "mat-0"
    },
    {
      "mesh": 2,
      "name": "mat-0"
    },
    {
      "mesh": 3,
      "name": "mat-0"
    },
    {
      "mesh": 4,
      "name": "mat-0"
    },
    {
      "mesh": 5,
      "name": "mat-0"
    },
    {
      "mesh": 6,
      "name": "mat-0"
    },
    {
      "mesh": 7,
      "name": "mat-0"
    },
    {
      "mesh": 8,
      "name": "mat-0"
    },
    {
      "mesh": 9,
      "name": "mat-0"
    },
    {
      "mesh": 10,
      "name": "mat-0"
    }
  ],
  "samplers": [
    {
      "magFilter": 9729,
      "minFilter": 9987,
      "wrapS": 10497,
      "wrapT": 10497
    }
  ],
  "scene": 0,
  "scenes": [
    {
      "name": "Sketchfab_Scene",
      "nodes": [
        0
      ]
    }
  ],
  "textures": [
    {
      "sampler": 0,
      "source": 0
    }
  ]
}
